<svg width="31" height="31" viewBox="0 0 31 31" fill="none" xmlns="http://www.w3.org/2000/svg">
<path d="M22.7817 19.2049L10.1255 24.8401C9.47887 25.1172 8.83221 24.9325 8.37031 24.4706L1.16462 16.5258C0.42557 15.6944 0.70271 14.4935 1.7189 14.0316L20.2874 5.80968C21.2112 5.34777 22.3198 5.99443 22.5045 7.01062L23.7979 17.6344C23.7979 18.2811 23.4284 18.9277 22.7817 19.2049Z" fill="white"/>
<path d="M25.1834 21.6068L10.8644 27.9811C10.4949 28.1659 9.94062 27.9811 9.75586 27.5192C9.5711 27.1497 9.75586 26.5954 10.2178 26.4106L24.5368 20.0364C25.1834 19.7592 25.6453 19.0202 25.5529 18.2811L23.9825 4.97831C23.7977 3.68498 24.5368 2.48404 25.7377 1.92975L29.1558 0.451661C29.5253 0.266899 30.0796 0.451661 30.2644 0.913564C30.4491 1.28309 30.2644 1.83737 29.8025 2.02213L26.3844 3.50022C25.8301 3.77737 25.553 4.23927 25.6453 4.88593L27.1234 18.1887C27.3082 19.6668 26.5691 20.9602 25.1834 21.6068Z" fill="white"/>
<path d="M17.4242 28.351C17.7937 29.1824 17.4242 30.1986 16.5928 30.5681C15.7614 30.9377 14.7452 30.5681 14.3757 29.7367C14.0061 28.9053 14.3757 27.8891 15.2071 27.5196C16.0385 27.1501 17.0547 27.5196 17.4242 28.351Z" fill="white"/>
<path d="M23.4286 25.7636C23.7981 26.595 23.4286 27.6112 22.5972 27.9807C21.7658 28.3502 20.7496 27.9807 20.3801 27.1493C20.0105 26.3178 20.3801 25.3017 21.2115 24.9321C22.0429 24.4702 23.0591 24.8398 23.4286 25.7636Z" fill="white"/>
</svg>
